<?xml version="1.0" encoding="utf-8"?>
<!-- Generator: Adobe Illustrator 26.0.1, SVG Export Plug-In . SVG Version: 6.00 Build 0)  -->
<svg version="1.1" id="Layer_1" xmlns="http://www.w3.org/2000/svg" xmlns:xlink="http://www.w3.org/1999/xlink" x="0px" y="0px"
	 viewBox="0 0 1000 1000" enable-background="new 0 0 1000 1000" xml:space="preserve">
<path fill="#FFFFFF" d="M498.8,953.7L105.9,726.9V273.2L498.8,46.3l392.9,226.9v453.7L498.8,953.7z M146.7,703.3l352.1,203.3
	l352.1-203.3V296.7L498.8,93.4L146.7,296.7V703.3z"/>
<g>
	<g>
		
			<radialGradient id="SVGID_1_" cx="518.2631" cy="487.3672" r="445.3391" fx="900.5881" fy="486.0978" gradientTransform="matrix(0.8377 -0.5462 1.2737 1.9536 -536.6356 -181.677)" gradientUnits="userSpaceOnUse">
			<stop  offset="3.745849e-02" style="stop-color:#D51E69"/>
			<stop  offset="0.1445" style="stop-color:#B41E7C"/>
			<stop  offset="0.2727" style="stop-color:#921D90"/>
			<stop  offset="0.3423" style="stop-color:#851D97"/>
			<stop  offset="0.4122" style="stop-color:#7C209D"/>
			<stop  offset="0.526" style="stop-color:#6426AE"/>
			<stop  offset="0.6508" style="stop-color:#4230C5"/>
			<stop  offset="0.7123" style="stop-color:#3C39CC"/>
			<stop  offset="0.8102" style="stop-color:#2A50E0"/>
			<stop  offset="0.8792" style="stop-color:#1B64F2"/>
		</radialGradient>
		<polygon fill="url(#SVGID_1_)" points="850.9,296.7 850.9,703.3 498.8,906.6 146.7,703.3 146.7,296.7 498.8,93.4 		"/>
		
			<radialGradient id="SVGID_00000152235216393201187440000014381201424933248414_" cx="522.7178" cy="484.4641" r="547.5255" fx="992.7701" fy="482.9035" gradientTransform="matrix(0.8377 -0.5462 1.2737 1.9536 -532.2149 -176.4758)" gradientUnits="userSpaceOnUse">
			<stop  offset="3.745849e-02" style="stop-color:#D51E69"/>
			<stop  offset="0.1445" style="stop-color:#B41E7C"/>
			<stop  offset="0.2727" style="stop-color:#921D90"/>
			<stop  offset="0.3423" style="stop-color:#851D97"/>
			<stop  offset="0.4122" style="stop-color:#7C209D"/>
			<stop  offset="0.526" style="stop-color:#6426AE"/>
			<stop  offset="0.6508" style="stop-color:#4230C5"/>
			<stop  offset="0.7123" style="stop-color:#3C39CC"/>
			<stop  offset="0.8102" style="stop-color:#2A50E0"/>
			<stop  offset="0.8792" style="stop-color:#1B64F2"/>
		</radialGradient>
		<path fill="url(#SVGID_00000152235216393201187440000014381201424933248414_)" d="M499,0L66.1,249.9v499.1L498.3,1000L931,749.1
			l0.5-499.2L499,0z M891.7,726.9L498.8,953.7L105.9,726.8V273.2L498.8,46.3l392.9,226.9V726.9z"/>
	</g>
	<g opacity="0.2">
		<polygon fill="#FFFFFF" points="850.9,296.7 850.9,703.3 498.8,906.6 146.7,703.3 146.7,296.7 498.8,93.4 		"/>
	</g>
</g>
<g>
	<g>
		
			<linearGradient id="SVGID_00000065776801368411386650000010080256249068913032_" gradientUnits="userSpaceOnUse" x1="642.7246" y1="377.4644" x2="509.7285" y2="510.4505" gradientTransform="matrix(1 0 0 -1 0 1000)">
			<stop  offset="0.47" style="stop-color:#FFFFFF"/>
			<stop  offset="0.58" style="stop-color:#FCFCFD"/>
			<stop  offset="0.66" style="stop-color:#F3F4F6"/>
			<stop  offset="0.73" style="stop-color:#E4E6E9"/>
			<stop  offset="0.79" style="stop-color:#CFD2D8"/>
			<stop  offset="0.84" style="stop-color:#B3B9C2"/>
			<stop  offset="0.88" style="stop-color:#9CA3AF"/>
		</linearGradient>
		<path fill="url(#SVGID_00000065776801368411386650000010080256249068913032_)" d="M645.9,619.4c-5,0-10-0.2-15-0.6
			c-15.9-1.4-32.4-6.2-48.1-13.5c-18.5-9.3-34.9-22.5-51.3-38c-1.8-1.7-49.6-49.9-49.6-49.9l37.1-34.3c0,0,27,26.7,48.5,48.2
			c23.2,23.2,49.8,37.8,75.5,37.8h2.2L645.9,619.4z"/>
		<path fill="#FFFFFF" d="M367.5,567.9c-4.3,0.7-8.7,1.1-13.1,1.1c-38.6,0-69.9-31.3-69.9-69.8c0-38.6,31.3-69.9,69.8-69.9
			c0,0,0,0,0,0c4.4,0,8.8,0.4,13.1,1.1v-50.9c-4.3-0.4-8.7-0.7-13.1-0.7c-3.5,0-6.9,0.1-10.3,0.4h-0.2
			c-66.2,5.8-115.1,64.2-109.3,130.4c5.1,58.1,51.1,104.1,109.1,109.3l0,0c3.2,0.3,6.6,0.4,9.8,0.5h0.9c1.5,0,3,0,4.5-0.1
			c1.8-0.1,3.6-0.2,5.3-0.3c1.1-0.1,2.2-0.2,3.3-0.3L367.5,567.9z"/>
		<path fill="#FFFFFF" d="M630.9,567.9c4.3,0.8,8.7,1.1,13.1,1.1c38.6,0,69.9-31.3,69.9-69.8c0-38.6-31.3-69.9-69.8-69.9
			c0,0,0,0,0,0c-4.4,0-8.8,0.4-13.1,1.1v-50.9c4.3-0.4,8.7-0.7,13.1-0.7c3.5,0,6.9,0.1,10.3,0.4h0.2
			c66.2,5.8,115.1,64.2,109.3,130.4c-5.1,58.1-51.1,104.1-109.1,109.3l0,0c-3.2,0.3-6.3,0.5-8.8,0.5c-5,0.1-10-0.2-15-0.6
			L630.9,567.9z"/>
	</g>
	<path fill="#FFFFFF" d="M644.8,378.8L644.8,378.8l-1.4,0.1C643.8,378.8,644.3,378.8,644.8,378.8z"/>
	
		<linearGradient id="SVGID_00000165221045908779930550000012738224462432800953_" gradientUnits="userSpaceOnUse" x1="356.8256" y1="624.0659" x2="489.7568" y2="491.1447" gradientTransform="matrix(1 0 0 -1 0 1000)">
		<stop  offset="0.47" style="stop-color:#FFFFFF"/>
		<stop  offset="0.66" style="stop-color:#FDFDFD"/>
		<stop  offset="0.74" style="stop-color:#F6F7F8"/>
		<stop  offset="0.8" style="stop-color:#E9EBEE"/>
		<stop  offset="0.85" style="stop-color:#D8DBE0"/>
		<stop  offset="0.86" style="stop-color:#D1D5DB"/>
	</linearGradient>
	<path fill="url(#SVGID_00000165221045908779930550000012738224462432800953_)" d="M517.5,481.1l-37.1,34.2l-2.9-2.9
		c-0.1,0-24.1-23.9-45.5-45.3c-23.5-23.6-51.8-37.9-77.5-37.9v-3.5l-0.4-47c19.1,0.1,38,3.9,55.7,11.2
		c31.6,13.8,56.8,39.5,89.7,72.9l0.4,0.4l0.4,0.4l9.4,9.4l0.1,0.1L517.5,481.1z"/>
	<path fill="#FFFFFF" d="M534.8,430.5c-11.2,11.2-88.7,85.9-97.6,94.8l-5.9,5.9c-8.4,8.5-17.7,16.1-27.7,22.5
		c-15.6,9.7-31.8,15.1-49.1,15.2l-0.5,50.5c19.1-0.1,38-3.9,55.7-11.1c31.6-13.8,57.1-39.8,90-73.2c0.2-0.1,66.9-67.4,66.9-67.4
		c18.9-18.9,33.6-28.1,50-33.7c8.9-3.2,18.3-4.8,27.8-4.8l0.5-50.5C591.7,378.8,559.9,405.4,534.8,430.5z"/>
</g>
</svg>
