<svg id="Layer_1" data-name="Layer 1" xmlns="http://www.w3.org/2000/svg" viewBox="0 0 530.16 240.62">
  <g>
    <path d="M410.68,0V.09h-1.42C409.73,0,410.2,0,410.68,0Z" fill="#fff"/>
    <path d="M420.35.45l-.16,0C417.05.17,413.88,0,410.68,0V0h-.83c-2.48,0-5.09.09-7.79.25C354.09,3,324.39,28,300.66,51.75,289.44,63,212,137.69,203.08,146.57c-2,2-4,4-5.9,5.89A160.15,160.15,0,0,1,169.44,175c-11.59,7.26-23.63,12.11-36.19,14.11-.47.08-.94.13-1.4.2a83.49,83.49,0,0,1-11.54.84,69.87,69.87,0,0,1,0-139.73H121c.71,0,1.42,0,2.14,0,.4,0,.79,0,1.19.06l1.65.11,1.49.12.66.07c23.6,2.52,48.59,16.22,69.77,37.44,9.41,9.44,17,17,25.2,25.16L259.39,78.2c-30.94-31.41-53.53-53.83-83.84-67a147,147,0,0,0-48.13-11c-.84,0-1.66-.08-2.48-.11-.28,0-.56,0-.85,0-1.28,0-2.55-.07-3.78-.07h-.46c-3.32,0-6.62.15-9.87.42l-.17,0a120.31,120.31,0,0,0-.21,239.69h0c3.19.28,6.56.44,9.83.47h.85l.88,0c1.1,0,2.19,0,3.27-.07h.37c.36,0,.72-.05,1.09-.06,1.13-.05,2.27-.12,3.39-.19l.82-.05,1.19-.11c.69-.05,1.38-.12,2.07-.19h0a153.65,153.65,0,0,0,42.1-10.4c31.63-13.76,57.09-39.82,90-73.25.17-.13,66.87-67.38,66.87-67.38C351.22,70,366,60.83,382.39,55.21A88.49,88.49,0,0,1,397,51.49c1-.17,2.08-.32,3.11-.44h0c.93-.11,1.86-.2,2.79-.28l.82-.07c.82-.07,1.64-.11,2.46-.15l1.16,0,2,0H410a69.86,69.86,0,0,1,.24,139.71h-1.43c-.52,0-1,0-1.55,0l-1.67-.06-.84,0-1-.06-2-.17-.47-.05-1.74-.21-.63-.09-1.73-.26-.4-.06h0c-21.87-3.7-43.85-17.09-63.42-36.67-8.46-8.45-16.93-16.88-25.12-25l-35.86,35.86c12.31,12.4,24.13,24.31,25,25.16,16.33,15.54,32.74,28.78,51.27,38,15.7,7.23,32.22,12.06,48.1,13.47l1.2.1c.73.07,1.59.14,2.62.21l.36,0h.14c2.58.16,5.91.29,10.67.28,2.49,0,5.59-.17,8.79-.45h0A120.31,120.31,0,0,0,420.35.45Z"/>
  </g>
</svg>
